<?xml version="1.0" encoding="UTF-8" standalone="no"?>
<svg xmlns:dc="http://purl.org/dc/elements/1.1/" xmlns:cc="http://creativecommons.org/ns#" xmlns:rdf="http://www.w3.org/1999/02/22-rdf-syntax-ns#" xmlns:svg="http://www.w3.org/2000/svg" xmlns="http://www.w3.org/2000/svg" id="svg998" version="1.1" viewBox="0 0 101.21741 14.211302" height="118.49208" width="843.93826">
  <g transform="translate(-2.7237196e-7,-282.7887)" id="layer1">
    <g id="g945" transform="matrix(0.33072917,0,0,-0.33072917,-43.907406,525.67078)">
      <g id="g3011" transform="matrix(1.9999948,0,0,1.9999814,256.64908,698.82394)">
        <path d="m 0,0 h -4.126 l 2.878,13.255 H 2.879 L 0,0" style="fill:#64696e;fill-opacity:1;fill-rule:nonzero;stroke:none" id="path3013" />
      </g>
      <g id="g3015" transform="matrix(1.9999948,0,0,1.9999814,301.90496,698.82994)">
        <path d="m 0,0 3.691,17.031 h 4.951 c 3.063,0 4.412,-1.158 4.412,-3.401 0,-2.065 -1.377,-4.028 -3.805,-4.327 2.28,0 3.54,-1.479 3.54,-3.292 0,-3.878 -3.087,-6.02 -6.755,-6.02 C 5.299,-0.009 0,0 0,0 Z m 10.864,5.922 c 0,1.397 -0.918,2.508 -3.366,2.508 H 3.661 L 2.189,1.633 h 3.619 c 3.251,0 5.056,1.732 5.056,4.289 z m 0.294,7.451 c 0,1.163 -0.86,2.035 -2.441,2.035 H 5.172 L 4.018,10.081 h 3.347 c 2.256,0 3.793,1.426 3.793,3.292" style="fill:#64696e;fill-opacity:1;fill-rule:nonzero;stroke:none" id="path3017" />
      </g>
      <g id="g3019" transform="matrix(1.9999948,0,0,1.9999814,237.13513,701.79191)">
        <path d="M 0,0 -0.328,-1.483 H 3.56 L 6.438,11.772 H 2.311 L 0.305,2.53 C -0.436,2.116 -1.134,1.701 -2.136,1.701 c -0.68,0 -1.245,0.352 -1.245,1.306 0,0.299 0.055,1.022 0.135,1.463 0.135,0.747 1.603,7.302 1.603,7.302 H -5.769 L -7.581,3.443 C -7.669,2.972 -7.882,2.098 -7.882,1.494 c 0,-2.174 1.309,-3.381 3.464,-3.381 1.708,0 3.561,1.02 4.418,1.887" style="fill:#64696e;fill-opacity:1;fill-rule:nonzero;stroke:none" id="path3021" />
      </g>
      <g id="g3023" transform="matrix(1.9999948,0,0,1.9999814,296.60097,725.35169)">
        <path d="m 0,0 -3.614,-8.554 -0.934,8.545 h -5.955 l 0.898,4.137 h -4.127 l -0.898,-4.137 h -1.399 l -0.682,-3.141 h 1.398 l -1.256,-5.779 c -0.139,-0.648 -0.224,-1.018 -0.224,-1.677 0,-2.185 1.467,-3.02 3.816,-3.02 0.884,0 2.277,0.157 2.879,0.354 0.142,0.673 0.576,2.658 0.691,3.251 -0.425,-0.23 -1.131,-0.487 -1.79,-0.487 -0.795,0 -1.222,0.257 -1.222,1.019 0,0.531 0.084,0.984 0.188,1.521 l 1.046,4.818 h 2.862 l 1.814,-10.211 -1.771,-3.608 h 4.265 L 4.265,0 H 0" style="fill:#64696e;fill-opacity:1;fill-rule:nonzero;stroke:none" id="path3025" />
      </g>
      <g id="g3027" transform="matrix(1.9999948,0,0,1.9999814,255.89108,733.61162)">
        <path d="M 0,0 -0.658,-3.033 H 3.468 L 4.126,0 H 0" style="fill:#64696e;fill-opacity:1;fill-rule:nonzero;stroke:none" id="path3029" />
      </g>
      <g id="g3031" transform="matrix(1.9999948,0,0,1.9999814,216.03318,726.08969)">
        <path d="m 0,0 c -5.906,0 -8.64,-4.718 -8.64,-8.321 0,-3.62 2.45,-5.706 5.928,-5.706 1.412,0 3.032,0.46 3.493,0.713 0.148,0.55 0.609,2.87 0.772,3.569 -0.854,-0.49 -2.066,-0.983 -3.061,-0.983 -1.794,0 -2.913,1.139 -2.913,2.794 0,2.529 1.64,4.661 4.248,4.661 1.127,0 2.425,-0.605 2.841,-1.079 0.193,0.862 0.611,2.791 0.79,3.624 C 2.871,-0.428 1.382,0 0,0" style="fill:#64696e;fill-opacity:1;fill-rule:nonzero;stroke:none" id="path3033" />
      </g>
      <g id="g3035" transform="matrix(1.9999948,0,0,1.9999814,382.37275,714.3738)">
        <path d="m 0,0 -1.696,-7.774 h 1.832 l 1.821,8.376 c 0.115,0.496 0.172,1.264 0.172,1.619 0,1.564 -1.02,3.054 -3.063,3.054 -1.708,0 -3.24,-0.969 -4.473,-1.844 l 0.329,1.537 H -6.91 L -9.677,-7.774 h 1.832 l 2.08,9.579 c 1.1,0.721 2.619,1.737 4.146,1.737 1.263,0 1.792,-0.845 1.792,-1.932 C 0.173,1.181 0.132,0.644 0,0" style="fill:#64696e;fill-opacity:1;fill-rule:nonzero;stroke:none" id="path3037" />
      </g>
      <g id="g3039" transform="matrix(1.9999948,0,0,1.9999814,358.87481,712.58381)">
        <path d="m 0,0 -0.829,-3.812 c -1.572,-1.07 -2.704,-1.669 -4.017,-1.669 -1.161,0 -2.101,0.474 -2.101,1.752 0,3.048 3.576,3.562 6.947,3.729 z m -1.163,-5.343 -0.33,-1.536 h 1.831 l 1.834,8.441 c 0.07,0.296 0.176,1.052 0.176,1.501 0,2.188 -1.575,3.13 -4.276,3.13 -1.187,0 -3.223,-0.388 -3.851,-0.555 -0.095,-0.496 -0.343,-1.477 -0.413,-1.902 0.959,0.377 2.738,0.898 4.003,0.898 1.698,0 2.682,-0.543 2.682,-1.737 C 0.493,2.671 0.474,2.205 0.435,2 L 0.307,1.472 C -0.805,1.434 -2.065,1.357 -3.673,1.115 -6.579,0.678 -8.939,-1.037 -8.939,-3.813 c 0,-2.097 1.354,-3.353 3.638,-3.353 0.969,0 2.994,0.714 4.138,1.823" style="fill:#64696e;fill-opacity:1;fill-rule:nonzero;stroke:none" id="path3041" />
      </g>
      <g id="g3043" transform="matrix(1.9999948,0,0,1.9999814,344.88485,724.5917)">
        <path d="m 0,0 c -2.018,0 -3.286,-1.268 -4.285,-1.957 l 0.395,1.816 h -1.832 l -2.767,-12.742 h 1.832 l 2.001,9.219 c 1.138,0.691 1.974,1.644 4.266,1.644 0.106,0.556 0.272,1.43 0.39,2.02" style="fill:#64696e;fill-opacity:1;fill-rule:nonzero;stroke:none" id="path3045" />
      </g>
      <g id="g3047" transform="matrix(1.9999948,0,0,1.9999814,410.18667,734.38361)">
        <path d="m 0,0 -1.222,-5.63 c -0.904,0.472 -1.84,0.917 -3.215,0.917 -4.167,0 -6.755,-4.745 -6.755,-8.73 0,-2.465 1.024,-4.657 3.587,-4.657 1.832,0 3.451,1.216 4.054,1.739 l -0.31,-1.418 h 1.833 L 1.832,0 Z m -3.204,-14.759 c -1.078,-0.737 -2.349,-1.589 -3.709,-1.589 -1.813,0 -2.37,1.539 -2.37,2.995 0,2.921 1.519,6.97 4.952,6.97 1,0 2.256,-0.541 2.752,-0.888 l -1.625,-7.488" style="fill:#64696e;fill-opacity:1;fill-rule:nonzero;stroke:none" id="path3049" />
      </g>
      <g id="g3051" transform="matrix(1.9999948,0,0,1.9999814,412.65467,716.15378)">
        <path d="M 0,0 C 0,2.313 2.163,4.338 5.426,4.338 6.733,4.338 8.14,3.914 8.961,3.441 8.866,2.978 8.689,2.163 8.567,1.632 7.609,2.307 6.266,2.761 5.045,2.761 3.142,2.761 1.904,1.664 1.904,0.395 c 0,-2.924 6.23,-0.49 6.23,-5.002 0,-2.679 -2.53,-4.434 -5.441,-4.434 -1.559,0 -3.218,0.488 -4.256,1.142 0.095,0.435 0.299,1.318 0.476,2.039 1.048,-0.89 2.453,-1.55 4.048,-1.55 1.91,0 3.298,0.943 3.298,2.461 C 6.259,-1.821 0,-4.351 0,0" style="fill:#64696e;fill-opacity:1;fill-rule:nonzero;stroke:none" id="path3053" />
      </g>
      <g id="g3055" transform="matrix(1.9999948,0,0,1.9999814,178.54128,708.23585)">
        <path d="m 0,0 c -1.21,0.1 -2.698,0.317 -4.287,0.64 l -3.024,-5.345 h 4.859 L 0.037,-0.007 0,0" style="fill:#64696e;fill-opacity:1;fill-rule:nonzero;stroke:none" id="path3057" />
      </g>
      <g id="g3059" transform="matrix(1.9999948,0,0,1.9999814,187.61326,711.62182)">
        <path d="M 0,0 C 1.16,-0.178 3.091,-0.434 4.36,-0.391 L 2.939,11.149 H -1.92 L -7.733,0.873 C -6.377,0.535 -4.97,0.252 -3.58,0.034 L -0.529,5.792 0,0" style="fill:#64696e;fill-opacity:1;fill-rule:nonzero;stroke:none" id="path3061" />
      </g>
      <g id="g3063" transform="matrix(1.9999948,0,0,1.9999814,196.35723,710.63783)">
        <path d="m 0,0 c -1.061,-0.314 -3.049,-0.642 -4.259,-0.757 l 0.471,-5.149 H 0.728 L 0,0" style="fill:#64696e;fill-opacity:1;fill-rule:nonzero;stroke:none" id="path3065" />
      </g>
      <g id="g3067" transform="matrix(1.9999948,0,0,1.9999814,176.75528,730.55165)">
        <path d="m 0,0 c -0.691,0.067 -1.694,0.134 -2.43,0.134 -3.59,0 -9.319,-0.739 -9.319,-3.098 0,-3.897 12.271,-6.991 19.643,-6.991 0.402,0 1.469,0.035 1.892,0.102 -4.752,0.391 -15.694,3.361 -15.694,6.882 0,1.879 3.107,2.679 5.908,2.971" style="fill:#ed192d;fill-opacity:1;fill-rule:nonzero;stroke:none" id="path3069" />
      </g>
      <g id="g3071" transform="matrix(1.9999948,0,0,1.9999814,155.95334,730.55165)">
        <path d="m 0,0 c -0.691,0.067 -1.63,0.16 -2.366,0.16 -4.007,0 -9.231,-1.157 -9.231,-3.726 0,-4.679 11.766,-7.758 20.216,-7.758 0.401,0 2.251,0.1 2.675,0.166 -5.616,0.462 -17.203,3.455 -17.203,7.765 0,2.23 2.761,3.066 5.909,3.393" style="fill:#ed192d;fill-opacity:1;fill-rule:nonzero;stroke:none" id="path3073" />
      </g>
      <g id="g3075" transform="matrix(1.9999948,0,0,1.9999814,434.02461,703.5219)">
        <path d="m 0,0 -0.059,-0.264 h -0.83 l -0.478,-2.063 h -0.311 l 0.476,2.063 H -2.031 L -1.973,0 H 0" style="fill:#64696e;fill-opacity:1;fill-rule:nonzero;stroke:none" id="path3077" />
      </g>
      <g id="g3079" transform="matrix(1.9999948,0,0,1.9999814,438.8026,703.5219)">
        <path d="m 0,0 -0.537,-2.327 h -0.314 l 0.46,1.977 -0.946,-1.337 h -0.184 l -0.328,1.398 -0.473,-2.038 H -2.614 L -2.076,0 h 0.425 L -1.337,-1.296 -0.429,0 H 0" style="fill:#64696e;fill-opacity:1;fill-rule:nonzero;stroke:none" id="path3081" />
      </g>
    </g>
  </g>
</svg>
